HIERARCHY
ROOT Hips
{
 OFFSET 0.000000 0.000000 0.000000
 CHANNELS 6 Xposition Yposition Zposition Yrotation Xrotation Zrotation
 JOINT Chest
 {
  OFFSET 0.000000 9.585900 0.002600
  CHANNELS 3 Yrotation Xrotation Zrotation
  JOINT Chest2
  {
   OFFSET 0.000000 9.601200 -0.005300
   CHANNELS 3 Yrotation Xrotation Zrotation
   JOINT Chest3
   {
    OFFSET 0.000000 9.561800 0.000000
    CHANNELS 3 Yrotation Xrotation Zrotation
    JOINT Chest4
    {
     OFFSET 0.000000 9.552100 0.000000
     CHANNELS 3 Yrotation Xrotation Zrotation
     JOINT Neck
     {
      OFFSET 0.000000 14.453000 0.000000
      CHANNELS 3 Yrotation Xrotation Zrotation
      JOINT Head
      {
       OFFSET 0.000000 8.936500 -0.011300
       CHANNELS 3 Yrotation Xrotation Zrotation
       End Site
       {
        OFFSET 0.000000 17.073600 -0.006000
       }
      }
     }
     JOINT RightCollar
     {
      OFFSET -2.921100 9.558500 0.000000
      CHANNELS 3 Yrotation Xrotation Zrotation
      JOINT RightShoulder
      {
       OFFSET -13.519700 0.000000 0.000000
       CHANNELS 3 Yrotation Xrotation Zrotation
       JOINT RightElbow
       {
        OFFSET 0.000000 -29.696600 0.000000
        CHANNELS 3 Yrotation Xrotation Zrotation
        JOINT RightWrist
        {
         OFFSET 0.000000 -24.004700 0.000000
         CHANNELS 3 Yrotation Xrotation Zrotation
         End Site
         {
          OFFSET 0.000000 -17.728500 0.000000
         }
        }
       }
      }
     }
     JOINT LeftCollar
     {
      OFFSET 2.921100 9.558500 0.000000
      CHANNELS 3 Yrotation Xrotation Zrotation
      JOINT LeftShoulder
      {
       OFFSET 13.519700 0.000000 0.000000
       CHANNELS 3 Yrotation Xrotation Zrotation
       JOINT LeftElbow
       {
        OFFSET 0.000000 -29.696600 0.000000
        CHANNELS 3 Yrotation Xrotation Zrotation
        JOINT LeftWrist
        {
         OFFSET 0.000000 -24.004700 0.000000
         CHANNELS 3 Yrotation Xrotation Zrotation
         End Site
         {
          OFFSET 0.000000 -17.728500 0.000000
         }
        }
       }
      }
     }
    }
   }
  }
 }
 JOINT RightHip
 {
  OFFSET -7.771700 -0.012900 -0.001300
  CHANNELS 3 Yrotation Xrotation Zrotation
  JOINT RightKnee
  {
   OFFSET 0.000000 -40.869800 0.001200
   CHANNELS 3 Yrotation Xrotation Zrotation
   JOINT RightAnkle
   {
    OFFSET 0.000000 -39.717900 0.002100
    CHANNELS 3 Yrotation Xrotation Zrotation
    JOINT RightToe
    {
     OFFSET 0.000000 -4.965400 11.033500
     CHANNELS 3 Yrotation Xrotation Zrotation
     End Site
     {
      OFFSET 0.000000 -1.423100 5.872300
     }
    }
   }
  }
 }
 JOINT LeftHip
 {
  OFFSET 7.771700 -0.012900 -0.001300
  CHANNELS 3 Yrotation Xrotation Zrotation
  JOINT LeftKnee
  {
   OFFSET 0.000000 -40.869800 0.001200
   CHANNELS 3 Yrotation Xrotation Zrotation
   JOINT LeftAnkle
   {
    OFFSET 0.000000 -39.717900 0.002100
    CHANNELS 3 Yrotation Xrotation Zrotation
    JOINT LeftToe
    {
     OFFSET 0.000000 -4.965400 11.033500
     CHANNELS 3 Yrotation Xrotation Zrotation
     End Site
     {
      OFFSET 0.000000 -1.423100 5.872300
     }
    }
   }
  }
 }
}
MOTION
Frames: 16
Frame Time: 0.008333
-68.362848 63.236669 12.517539 164.746063 -52.132673 -2.692906 8.185028 26.016409 4.603125 1.301776 4.549762 0.327421 2.075159 7.198692 0.583422 6.590899 21.243825 2.594650 1.465925 17.422275 2.171397 1.987703 -3.454447 3.488723 4.892454 4.474255 5.725173 -8.730570 -4.581685 -9.419431 -82.139878 -47.169278 126.513923 -0.078079 -7.769996 -14.228672 -10.063550 3.574349 0.030611 -1.929556 -8.311856 15.527694 108.171897 -67.182770 -133.615924 14.428502 -7.475813 10.946489 -4.583983 -8.277592 10.275805 -25.839261 74.354777 -24.329340 0.305593 -13.084818 -1.873939 -0.376919 0.747956 -0.147730 -1.578211 -14.679194 0.749274 14.453690 61.903990 7.720797 -2.646926 -5.740517 1.558471 -0.334798 -0.775308 -0.145121
-68.367716 63.239109 12.516597 164.758613 -52.131125 -2.684389 8.163677 26.018697 4.592061 1.302859 4.552859 0.324943 2.072002 7.198868 0.582816 6.581660 21.245908 2.592064 1.474395 17.413729 2.161910 2.002606 -3.466683 3.464997 4.919889 4.470112 5.709026 -8.744717 -4.578112 -9.409581 -82.089533 -47.184179 126.467011 -0.059906 -7.752102 -14.217287 -10.055019 3.572373 0.032783 -1.916801 -8.315574 15.520377 108.029572 -67.223331 -133.486388 14.392925 -7.435586 10.855812 -4.594410 -8.277349 10.261483 -25.862887 74.351178 -24.367606 0.306977 -13.087028 -1.868242 -0.375161 0.747951 -0.144627 -1.573329 -14.669205 0.731662 14.448808 61.882540 7.713114 -2.663407 -5.735651 1.560918 -0.317717 -0.766377 -0.139673
-68.372891 63.241355 12.515642 164.757765 -52.127736 -2.662617 8.149099 26.019203 4.574751 1.294694 4.553237 0.339811 2.074541 7.198758 0.570695 6.570421 21.250423 2.598961 1.482669 17.403595 2.137746 2.020289 -3.485026 3.438022 4.949262 4.466246 5.675461 -8.760955 -4.571940 -9.397315 -82.033091 -47.203235 126.413635 -0.042400 -7.669050 -14.219498 -10.044935 3.567154 0.012756 -1.903805 -8.317766 15.520796 107.877643 -67.268832 -133.346978 14.352950 -7.387764 10.749058 -4.594034 -8.281429 10.243231 -25.876440 74.349284 -24.395175 0.309928 -13.088022 -1.859327 -0.379686 0.747663 -0.148363 -1.566948 -14.666096 0.709384 14.440059 61.868399 7.696028 -2.651052 -5.717631 1.567756 -0.329321 -0.763234 -0.140779
-68.377200 63.243870 12.514664 164.755841 -52.125599 -2.644262 8.140343 26.019990 4.557769 1.290871 4.554061 0.345475 2.072730 7.199916 0.573486 6.570021 21.250377 2.588995 1.486148 17.393913 2.134981 2.029034 -3.493055 3.423853 4.988010 4.447757 5.660009 -8.775835 -4.553025 -9.375258 -81.985035 -47.232098 126.346887 -0.029273 -7.682156 -14.211735 -10.041915 3.574813 0.026156 -1.885460 -8.326599 15.509119 107.702114 -67.314871 -133.188297 14.306446 -7.334775 10.623897 -4.593729 -8.283695 10.231140 -25.893937 74.344381 -24.433077 0.325306 -13.084570 -1.843160 -0.399986 0.746380 -0.160687 -1.562021 -14.662400 0.696710 14.418431 61.859845 7.666405 -2.656647 -5.702626 1.573922 -0.326726 -0.768127 -0.140614
-68.379247 63.247085 12.513790 164.746982 -52.127778 -2.633097 8.136797 26.024505 4.561829 1.294757 4.553255 0.336712 2.053226 7.207617 0.592576 6.569214 21.247715 2.572263 1.493514 17.388840 2.119718 2.075255 -3.581910 3.378357 5.013850 4.439471 5.643553 -8.753696 -4.546961 -9.353711 -81.936999 -47.270487 126.268829 -0.012544 -7.693988 -14.205279 -10.031754 3.581306 0.040619 -1.861507 -8.333326 15.482694 107.513418 -67.364228 -133.019119 14.257467 -7.279047 10.483147 -4.594448 -8.280092 10.233351 -25.901869 74.340042 -24.456597 0.320904 -13.077702 -1.840427 -0.399629 0.741838 -0.160313 -1.554376 -14.654201 0.697417 14.406657 61.853540 7.649821 -2.665644 -5.691437 1.574632 -0.320987 -0.770619 -0.137961
-68.381623 63.248974 12.513799 164.738825 -52.119495 -2.621509 8.125397 26.029729 4.564365 1.296343 4.548548 0.331200 2.055360 7.204586 0.586864 6.540559 21.257006 2.585554 1.518068 17.353601 2.087849 2.136532 -3.693769 3.322646 5.057603 4.425755 5.610262 -8.753314 -4.543757 -9.345561 -81.869449 -47.296718 126.196473 0.009875 -7.658248 -14.197433 -10.003781 3.566704 0.015844 -1.835608 -8.326901 15.477727 107.371735 -67.400957 -132.902552 14.210430 -7.194657 10.339245 -4.597529 -8.288882 10.233449 -25.899699 74.338098 -24.471645 0.321428 -13.069534 -1.832834 -0.404710 0.737489 -0.165917 -1.545990 -14.655950 0.696953 14.395572 61.845316 7.632223 -2.668616 -5.688057 1.582472 -0.321276 -0.764569 -0.139945
-68.385253 63.250323 12.513803 164.746853 -52.106222 -2.614804 8.107923 26.023341 4.551041 1.289973 4.552797 0.336239 2.058238 7.200688 0.580761 6.539767 21.255931 2.581298 1.550852 17.269045 2.080328 2.182604 -3.764091 3.282149 5.074052 4.419740 5.605650 -8.753229 -4.544905 -9.339990 -81.791167 -47.322753 126.115415 0.026689 -7.619384 -14.186420 -10.009110 3.570954 0.027541 -1.797130 -8.323269 15.459966 107.337713 -67.408325 -132.895054 14.167365 -7.050426 10.198315 -4.613280 -8.299790 10.234839 -25.916758 74.331723 -24.514320 0.305076 -13.068526 -1.830482 -0.393252 0.739312 -0.159077 -1.542584 -14.662662 0.686951 14.391734 61.832892 7.618629 -2.662791 -5.682307 1.597471 -0.334646 -0.762413 -0.144500
-68.387836 63.252654 12.513338 164.752666 -52.099936 -2.610768 8.091554 26.040591 4.552815 1.284342 4.559262 0.338043 2.060175 7.186798 0.570393 6.528637 21.259975 2.578508 1.579620 17.217451 2.060582 2.268623 -3.909952 3.228722 5.092108 4.404742 5.588332 -8.746752 -4.549665 -9.336231 -81.709978 -47.350391 126.027915 0.055740 -7.480146 -14.186632 -10.007376 3.569721 0.039194 -1.767679 -8.333821 15.433398 107.144195 -67.462097 -132.715689 14.121135 -6.956360 10.015316 -4.622996 -8.303520 10.237037 -25.931273 74.326339 -24.549300 0.297458 -13.066073 -1.821461 -0.390473 0.738893 -0.159387 -1.539516 -14.662126 0.679678 14.385847 61.822965 7.606590 -2.651567 -5.681244 1.606603 -0.332378 -0.755263 -0.144587
-68.391173 63.253962 12.513493 164.760362 -52.085651 -2.603642 8.077690 26.032166 4.537698 1.282005 4.564107 0.340336 2.054646 7.195278 0.574099 6.518292 21.264197 2.574949 1.627509 17.138183 2.041031 2.364643 -4.061377 3.176938 5.121337 4.379433 5.574745 -8.751239 -4.549064 -9.336438 -81.633295 -47.380359 125.937580 0.078511 -7.382116 -14.203708 -9.995939 3.550577 0.032303 -1.751570 -8.329004 15.427320 106.739593 -67.544766 -132.341949 14.041472 -6.919740 9.805006 -4.628970 -8.318108 10.229148 -25.938181 74.324689 -24.565178 0.290595 -13.062636 -1.823137 -0.386347 0.736232 -0.151921 -1.530653 -14.669327 0.670327 14.373720 61.810112 7.590076 -2.654401 -5.678240 1.616514 -0.312137 -0.745643 -0.141244
-68.393474 63.255187 12.514145 164.763409 -52.070359 -2.598203 8.065016 26.035767 4.534218 1.283544 4.556313 0.334806 2.048103 7.205976 0.578448 6.506867 21.268683 2.570139 1.698808 17.029847 2.018149 2.472919 -4.218260 3.129002 5.163837 4.342795 5.565537 -8.772808 -4.538834 -9.343852 -81.551064 -47.408770 125.850009 0.093076 -7.303136 -14.231483 -9.988525 3.538389 0.039581 -1.716448 -8.327557 15.406061 106.435201 -67.592552 -132.077355 13.957686 -6.818694 9.600294 -4.632402 -8.333954 10.225941 -25.940208 74.323551 -24.575210 0.287080 -13.058278 -1.822426 -0.385847 0.735281 -0.152355 -1.527065 -14.680816 0.666083 14.366885 61.803550 7.578885 -2.658254 -5.673924 1.622202 -0.313663 -0.745111 -0.141085
-68.395968 63.256609 12.514686 164.770509 -52.056233 -2.593319 8.052030 26.041351 4.526540 1.281457 4.557047 0.334038 2.044815 7.207134 0.576905 6.496284 21.272156 2.564284 1.777897 16.921036 2.002343 2.619444 -4.412287 3.076205 5.180753 4.320276 5.555435 -8.767452 -4.538262 -9.345356 -81.464956 -47.430248 125.763623 0.102753 -7.214190 -14.271027 -9.986527 3.526625 0.048636 -1.680715 -8.320013 15.389670 106.205274 -67.627702 -131.883830 13.880358 -6.676882 9.391417 -4.639575 -8.347302 10.221200 -25.943438 74.323103 -24.586594 0.277635 -13.059404 -1.829821 -0.379219 0.737492 -0.147864 -1.526549 -14.690797 0.659216 14.356342 61.795506 7.565819 -2.667472 -5.667693 1.621163 -0.309099 -0.745161 -0.136327
-68.398157 63.257859 12.515598 164.780740 -52.040288 -2.592209 8.039732 26.044211 4.521866 1.279615 4.557046 0.332902 2.041979 7.207316 0.575124 6.487430 21.274178 2.558209 1.874083 16.796750 1.991550 2.806419 -4.632186 3.021181 5.203017 4.298410 5.546907 -8.753166 -4.528924 -9.353271 -81.397336 -47.438812 125.683638 0.106750 -7.123508 -14.315398 -9.989265 3.522677 0.059472 -1.641685 -8.311751 15.372327 105.993473 -67.657881 -131.716205 13.795340 -6.518295 9.170010 -4.645497 -8.362030 10.220083 -25.966695 74.315079 -24.618176 0.272557 -13.056168 -1.825179 -0.373592 0.737319 -0.146488 -1.530325 -14.702082 0.653711 14.353843 61.783490 7.554830 -2.667351 -5.656689 1.623919 -0.320477 -0.746497 -0.134612
-68.399597 63.258491 12.517316 164.786396 -52.019566 -2.592567 8.026970 26.038109 4.515413 1.278118 4.556129 0.332341 2.039400 7.206063 0.574201 6.466457 21.280490 2.553837 2.011767 16.656867 1.979411 3.045345 -4.879638 2.964638 5.231002 4.277176 5.522103 -8.737317 -4.514634 -9.348867 -81.370864 -47.440356 125.646668 0.107075 -7.079670 -14.337620 -9.995420 3.534480 0.067958 -1.582635 -8.310458 15.353044 105.808071 -67.678899 -131.576734 13.689343 -6.345399 8.929351 -4.648009 -8.382394 10.224382 -25.973128 74.308837 -24.632768 0.268356 -13.052825 -1.823631 -0.374153 0.738834 -0.145724 -1.533721 -14.718102 0.654730 14.352740 61.772164 7.544844 -2.671009 -5.650320 1.627804 -0.310024 -0.744881 -0.133156
-68.403135 63.257783 12.519425 164.792232 -51.988616 -2.581532 8.007646 26.021754 4.496690 1.275867 4.555256 0.331060 2.035809 7.204734 0.572152 6.469646 21.274338 2.547668 2.164651 16.515774 1.982192 3.344472 -5.153623 2.908179 5.232503 4.274953 5.515368 -8.715372 -4.506146 -9.351103 -81.270606 -47.442948 125.568373 0.132768 -7.080888 -14.369931 -10.008477 3.546729 0.074502 -1.537000 -8.252595 15.344412 105.747698 -67.686068 -131.560555 13.556017 -6.164240 8.668220 -4.651486 -8.417433 10.211426 -25.977387 74.310951 -24.639510 0.265654 -13.050611 -1.830961 -0.369013 0.739802 -0.146462 -1.528378 -14.747139 0.645601 14.341019 61.761682 7.532375 -2.702402 -5.632593 1.623302 -0.304876 -0.749151 -0.127737
-68.404720 63.259703 12.519819 164.791786 -51.977392 -2.574519 7.997445 26.027075 4.489595 1.271160 4.566992 0.328040 2.036728 7.188522 0.571497 6.463195 21.272549 2.541685 2.361164 16.358962 1.983836 3.707388 -5.451158 2.852152 5.243084 4.269776 5.505623 -8.709394 -4.504516 -9.349116 -81.165751 -47.441530 125.511998 0.129592 -7.021368 -14.439181 -10.009934 3.548318 0.075510 -1.513545 -8.201579 15.342680 105.716139 -67.703361 -131.546838 13.400588 -5.987093 8.381544 -4.651926 -8.428362 10.205147 -25.973826 74.309189 -24.639049 0.266871 -13.045938 -1.829750 -0.368879 0.737879 -0.150507 -1.523069 -14.751832 0.643759 14.332337 61.749132 7.520501 -2.716264 -5.621075 1.622930 -0.312073 -0.751848 -0.125452
-68.407588 63.260664 12.520164 164.797650 -51.959028 -2.565568 7.985392 26.025614 4.471759 1.266217 4.569187 0.324057 2.037806 7.182725 0.571531 6.455973 21.271621 2.534318 2.591014 16.193388 1.997979 4.131894 -5.768065 2.793425 5.254949 4.260377 5.506732 -8.699832 -4.494144 -9.355873 -81.119936 -47.426614 125.502468 0.075927 -6.908173 -14.488293 -10.002332 3.542164 0.081989 -1.506593 -8.178791 15.344381 105.693174 -67.748649 -131.517490 13.226360 -5.826609 8.056479 -4.657544 -8.448999 10.193256 -25.955354 74.315806 -24.628748 0.262007 -13.044075 -1.826945 -0.371254 0.734115 -0.151290 -1.519346 -14.765923 0.630944 14.329863 61.737925 7.515219 -2.715730 -5.609397 1.625643 -0.304262 -0.750302 -0.127141
